M48
; DRILL file {KiCad (6.0.4)} date Wed May 25 11:21:29 2022
; FORMAT={-:-/ absolute / metric / decimal}
; #@! TF.CreationDate,2022-05-25T11:21:29-03:00
; #@! TF.GenerationSoftware,Kicad,Pcbnew,(6.0.4)
; #@! TF.FileFunction,Plated,1,2,PTH
FMAT,2
METRIC
; #@! TA.AperFunction,Plated,PTH,ComponentDrill
T1C0.800
; #@! TA.AperFunction,Plated,PTH,ComponentDrill
T2C0.900
; #@! TA.AperFunction,Plated,PTH,ComponentDrill
T3C1.000
; #@! TA.AperFunction,Plated,PTH,ComponentDrill
T4C1.100
; #@! TA.AperFunction,Plated,PTH,ComponentDrill
T5C1.520
%
G90
G05
T1
X6.969Y-27.492
X6.969Y-36.382
X9.469Y-36.382
X9.549Y-7.807
X11.969Y-27.492
X12.049Y-7.807
X20.944Y-7.807
X20.944Y-17.967
X31.104Y-36.018
X31.104Y-43.638
X33.644Y-36.018
X33.644Y-43.638
X36.184Y-36.018
X36.184Y-43.638
X37.449Y-7.847
X37.449Y-12.847
X38.724Y-36.018
X38.724Y-43.638
X41.264Y-36.018
X41.264Y-43.638
X41.374Y-20.761
X43.804Y-36.018
X43.804Y-43.638
X45.069Y-7.847
X45.069Y-12.847
X46.254Y-20.761
X46.344Y-36.018
X46.344Y-43.638
X48.884Y-36.018
X48.884Y-43.638
X50.704Y-7.807
X51.424Y-36.018
X51.424Y-43.638
X53.964Y-36.018
X53.964Y-43.638
X56.504Y-36.018
X56.504Y-43.638
X59.044Y-36.018
X59.044Y-43.638
X60.864Y-7.807
X61.584Y-36.018
X61.584Y-43.638
X64.124Y-36.018
X64.124Y-43.638
X71.189Y-19.237
X71.189Y-29.397
T2
X27.289Y-10.347
X29.829Y-10.347
X68.649Y-7.807
X71.189Y-7.807
T3
X31.169Y-29.397
X31.174Y-50.352
X33.709Y-29.397
X33.714Y-50.352
X36.249Y-29.397
X36.254Y-50.352
X38.789Y-29.397
X38.794Y-50.352
X41.329Y-29.397
X41.334Y-50.352
X43.869Y-29.397
X43.874Y-50.352
X46.409Y-29.397
X46.414Y-50.352
X48.954Y-29.397
X48.954Y-50.352
X51.494Y-29.397
X51.494Y-50.352
X54.034Y-29.397
X54.034Y-50.352
X56.574Y-29.397
X56.574Y-50.352
X59.114Y-29.397
X59.114Y-50.352
X61.654Y-29.397
X61.654Y-50.352
X64.194Y-29.397
X64.194Y-50.352
T4
X6.969Y-18.277
X9.509Y-18.277
X12.049Y-18.277
X59.534Y-16.167
X59.534Y-22.667
X64.034Y-16.167
X64.034Y-22.667
T5
X6.969Y-49.082
X12.049Y-49.082
T0
M30
