%TF.GenerationSoftware,KiCad,Pcbnew,(6.0.4)*%
%TF.CreationDate,2022-05-25T11:20:54-03:00*%
%TF.ProjectId,modulo do atmega,6d6f6475-6c6f-4206-946f-2061746d6567,rev?*%
%TF.SameCoordinates,Original*%
%TF.FileFunction,Copper,L2,Bot*%
%TF.FilePolarity,Positive*%
%FSLAX46Y46*%
G04 Gerber Fmt 4.6, Leading zero omitted, Abs format (unit mm)*
G04 Created by KiCad (PCBNEW (6.0.4)) date 2022-05-25 11:20:54*
%MOMM*%
%LPD*%
G01*
G04 APERTURE LIST*
%TA.AperFunction,ComponentPad*%
%ADD10O,1.600000X1.600000*%
%TD*%
%TA.AperFunction,ComponentPad*%
%ADD11C,1.600000*%
%TD*%
%TA.AperFunction,ComponentPad*%
%ADD12O,1.700000X1.700000*%
%TD*%
%TA.AperFunction,ComponentPad*%
%ADD13R,1.700000X1.700000*%
%TD*%
%TA.AperFunction,ComponentPad*%
%ADD14C,2.000000*%
%TD*%
%TA.AperFunction,ComponentPad*%
%ADD15C,3.000000*%
%TD*%
%TA.AperFunction,ComponentPad*%
%ADD16R,3.000000X3.000000*%
%TD*%
%TA.AperFunction,ComponentPad*%
%ADD17C,1.800000*%
%TD*%
%TA.AperFunction,ComponentPad*%
%ADD18R,1.800000X1.800000*%
%TD*%
%TA.AperFunction,ComponentPad*%
%ADD19C,1.500000*%
%TD*%
%TA.AperFunction,ComponentPad*%
%ADD20O,1.905000X2.000000*%
%TD*%
%TA.AperFunction,ComponentPad*%
%ADD21R,1.905000X2.000000*%
%TD*%
%TA.AperFunction,ComponentPad*%
%ADD22R,1.600000X1.600000*%
%TD*%
%TA.AperFunction,Conductor*%
%ADD23C,1.016000*%
%TD*%
G04 APERTURE END LIST*
D10*
%TO.P,R3,2*%
%TO.N,/rst*%
X60864000Y-7807387D03*
D11*
%TO.P,R3,1*%
%TO.N,/VCC5V*%
X50704000Y-7807387D03*
%TD*%
D12*
%TO.P,J2,7,Pin_7*%
%TO.N,/rst*%
X64194000Y-29397387D03*
%TO.P,J2,6,Pin_6*%
%TO.N,Net-(J2-Pad6)*%
X61654000Y-29397387D03*
%TO.P,J2,5,Pin_5*%
%TO.N,Net-(J2-Pad5)*%
X59114000Y-29397387D03*
%TO.P,J2,4,Pin_4*%
%TO.N,Net-(J2-Pad4)*%
X56574000Y-29397387D03*
%TO.P,J2,3,Pin_3*%
%TO.N,Net-(J2-Pad3)*%
X54034000Y-29397387D03*
%TO.P,J2,2,Pin_2*%
%TO.N,Net-(J2-Pad2)*%
X51494000Y-29397387D03*
D13*
%TO.P,J2,1,Pin_1*%
%TO.N,/VCC5V*%
X48954000Y-29397387D03*
%TD*%
D14*
%TO.P,SW1,2,2*%
%TO.N,GNDREF*%
X59534000Y-16167387D03*
X59534000Y-22667387D03*
%TO.P,SW1,1,1*%
%TO.N,/rst*%
X64034000Y-22667387D03*
X64034000Y-16167387D03*
%TD*%
D11*
%TO.P,C4,2*%
%TO.N,GNDREF*%
X37449000Y-7847387D03*
%TO.P,C4,1*%
%TO.N,/osc2*%
X37449000Y-12847387D03*
%TD*%
D12*
%TO.P,J5,7,Pin_7*%
%TO.N,Net-(J5-Pad7)*%
X31174000Y-50352387D03*
%TO.P,J5,6,Pin_6*%
%TO.N,Net-(J5-Pad6)*%
X33714000Y-50352387D03*
%TO.P,J5,5,Pin_5*%
%TO.N,Net-(J5-Pad5)*%
X36254000Y-50352387D03*
%TO.P,J5,4,Pin_4*%
%TO.N,Net-(J5-Pad4)*%
X38794000Y-50352387D03*
%TO.P,J5,3,Pin_3*%
%TO.N,/led*%
X41334000Y-50352387D03*
%TO.P,J5,2,Pin_2*%
%TO.N,/VCC5V*%
X43874000Y-50352387D03*
D13*
%TO.P,J5,1,Pin_1*%
%TO.N,Net-(J5-Pad1)*%
X46414000Y-50352387D03*
%TD*%
D12*
%TO.P,J4,7,Pin_7*%
%TO.N,GNDREF*%
X48954000Y-50352387D03*
%TO.P,J4,6,Pin_6*%
%TO.N,Net-(J4-Pad6)*%
X51494000Y-50352387D03*
%TO.P,J4,5,Pin_5*%
%TO.N,Net-(J4-Pad5)*%
X54034000Y-50352387D03*
%TO.P,J4,4,Pin_4*%
%TO.N,Net-(J4-Pad4)*%
X56574000Y-50352387D03*
%TO.P,J4,3,Pin_3*%
%TO.N,Net-(J4-Pad3)*%
X59114000Y-50352387D03*
%TO.P,J4,2,Pin_2*%
%TO.N,Net-(J4-Pad2)*%
X61654000Y-50352387D03*
D13*
%TO.P,J4,1,Pin_1*%
%TO.N,Net-(J4-Pad1)*%
X64194000Y-50352387D03*
%TD*%
D10*
%TO.P,R2,2*%
%TO.N,Net-(D2-Pad2)*%
X71189000Y-19237387D03*
D11*
%TO.P,R2,1*%
%TO.N,/led*%
X71189000Y-29397387D03*
%TD*%
D15*
%TO.P,J1,2,Pin_2*%
%TO.N,GNDREF*%
X12049000Y-49082387D03*
D16*
%TO.P,J1,1,Pin_1*%
%TO.N,/VCC*%
X6969000Y-49082387D03*
%TD*%
D17*
%TO.P,D2,2,A*%
%TO.N,Net-(D2-Pad2)*%
X71189000Y-7807387D03*
D18*
%TO.P,D2,1,K*%
%TO.N,GNDREF*%
X68649000Y-7807387D03*
%TD*%
D19*
%TO.P,Y1,2,2*%
%TO.N,/osc2*%
X41374000Y-20761387D03*
%TO.P,Y1,1,1*%
%TO.N,/osc1*%
X46254000Y-20761387D03*
%TD*%
D20*
%TO.P,U1,3,VO*%
%TO.N,/VCC5V*%
X12049000Y-18277387D03*
%TO.P,U1,2,GND*%
%TO.N,GNDREF*%
X9509000Y-18277387D03*
D21*
%TO.P,U1,1,VI*%
%TO.N,/VCC*%
X6969000Y-18277387D03*
%TD*%
D10*
%TO.P,U2,28,PC5*%
%TO.N,Net-(J4-Pad1)*%
X64124000Y-43637612D03*
%TO.P,U2,27,PC4*%
%TO.N,Net-(J4-Pad2)*%
X61584000Y-43637612D03*
%TO.P,U2,26,PC3*%
%TO.N,Net-(J4-Pad3)*%
X59044000Y-43637612D03*
%TO.P,U2,25,PC2*%
%TO.N,Net-(J4-Pad4)*%
X56504000Y-43637612D03*
%TO.P,U2,24,PC1*%
%TO.N,Net-(J4-Pad5)*%
X53964000Y-43637612D03*
%TO.P,U2,23,PC0*%
%TO.N,Net-(J4-Pad6)*%
X51424000Y-43637612D03*
%TO.P,U2,22,GND*%
%TO.N,GNDREF*%
X48884000Y-43637612D03*
%TO.P,U2,21,AREF*%
%TO.N,Net-(J5-Pad1)*%
X46344000Y-43637612D03*
%TO.P,U2,20,AVCC*%
%TO.N,/VCC5V*%
X43804000Y-43637612D03*
%TO.P,U2,19,PB5*%
%TO.N,/led*%
X41264000Y-43637612D03*
%TO.P,U2,18,PB4*%
%TO.N,Net-(J5-Pad4)*%
X38724000Y-43637612D03*
%TO.P,U2,17,PB3*%
%TO.N,Net-(J5-Pad5)*%
X36184000Y-43637612D03*
%TO.P,U2,16,PB2*%
%TO.N,Net-(J5-Pad6)*%
X33644000Y-43637612D03*
%TO.P,U2,15,PB1*%
%TO.N,Net-(J5-Pad7)*%
X31104000Y-43637612D03*
%TO.P,U2,14,PB0*%
%TO.N,Net-(J3-Pad1)*%
X31104000Y-36017612D03*
%TO.P,U2,13,PD7*%
%TO.N,Net-(J3-Pad2)*%
X33644000Y-36017612D03*
%TO.P,U2,12,PD6*%
%TO.N,Net-(J3-Pad3)*%
X36184000Y-36017612D03*
%TO.P,U2,11,PD5*%
%TO.N,Net-(J3-Pad4)*%
X38724000Y-36017612D03*
%TO.P,U2,10,XTAL2/PB7*%
%TO.N,/osc2*%
X41264000Y-36017612D03*
%TO.P,U2,9,XTAL1/PB6*%
%TO.N,/osc1*%
X43804000Y-36017612D03*
%TO.P,U2,8,GND*%
%TO.N,GNDREF*%
X46344000Y-36017612D03*
%TO.P,U2,7,VCC*%
%TO.N,/VCC5V*%
X48884000Y-36017612D03*
%TO.P,U2,6,PD4*%
%TO.N,Net-(J2-Pad2)*%
X51424000Y-36017612D03*
%TO.P,U2,5,PD3*%
%TO.N,Net-(J2-Pad3)*%
X53964000Y-36017612D03*
%TO.P,U2,4,PD2*%
%TO.N,Net-(J2-Pad4)*%
X56504000Y-36017612D03*
%TO.P,U2,3,PD1*%
%TO.N,Net-(J2-Pad5)*%
X59044000Y-36017612D03*
%TO.P,U2,2,PD0*%
%TO.N,Net-(J2-Pad6)*%
X61584000Y-36017612D03*
D22*
%TO.P,U2,1,~{RESET}/PC6*%
%TO.N,/rst*%
X64124000Y-36017612D03*
%TD*%
D10*
%TO.P,R1,2*%
%TO.N,Net-(D1-Pad2)*%
X20944000Y-17967387D03*
D11*
%TO.P,R1,1*%
%TO.N,/VCC5V*%
X20944000Y-7807387D03*
%TD*%
%TO.P,C5,2*%
%TO.N,GNDREF*%
X9549000Y-7807387D03*
D22*
%TO.P,C5,1*%
%TO.N,/VCC5V*%
X12049000Y-7807387D03*
%TD*%
D11*
%TO.P,C3,2*%
%TO.N,GNDREF*%
X45069000Y-7847387D03*
%TO.P,C3,1*%
%TO.N,/osc1*%
X45069000Y-12847387D03*
%TD*%
%TO.P,C1,2*%
%TO.N,GNDREF*%
X9469000Y-36382387D03*
D22*
%TO.P,C1,1*%
%TO.N,/VCC*%
X6969000Y-36382387D03*
%TD*%
D12*
%TO.P,J3,7,Pin_7*%
%TO.N,GNDREF*%
X46409000Y-29397387D03*
%TO.P,J3,6,Pin_6*%
%TO.N,/osc1*%
X43869000Y-29397387D03*
%TO.P,J3,5,Pin_5*%
%TO.N,/osc2*%
X41329000Y-29397387D03*
%TO.P,J3,4,Pin_4*%
%TO.N,Net-(J3-Pad4)*%
X38789000Y-29397387D03*
%TO.P,J3,3,Pin_3*%
%TO.N,Net-(J3-Pad3)*%
X36249000Y-29397387D03*
%TO.P,J3,2,Pin_2*%
%TO.N,Net-(J3-Pad2)*%
X33709000Y-29397387D03*
D13*
%TO.P,J3,1,Pin_1*%
%TO.N,Net-(J3-Pad1)*%
X31169000Y-29397387D03*
%TD*%
D17*
%TO.P,D1,2,A*%
%TO.N,Net-(D1-Pad2)*%
X29829000Y-10347387D03*
D18*
%TO.P,D1,1,K*%
%TO.N,GNDREF*%
X27289000Y-10347387D03*
%TD*%
D11*
%TO.P,C2,2*%
%TO.N,GNDREF*%
X11969000Y-27492387D03*
%TO.P,C2,1*%
%TO.N,/VCC*%
X6969000Y-27492387D03*
%TD*%
D23*
%TO.N,/VCC*%
X6969000Y-36382387D02*
X6969000Y-27492387D01*
X6969000Y-27492387D02*
X6969000Y-18277387D01*
X6969000Y-49082387D02*
X6969000Y-36382387D01*
%TO.N,GNDREF*%
X10784000Y-5267387D02*
X22251387Y-5267387D01*
X57376000Y-24825387D02*
X59534000Y-22667387D01*
X12049000Y-49082387D02*
X12049000Y-40832387D01*
X59534000Y-12107387D02*
X52694000Y-5267387D01*
X37449000Y-7847387D02*
X45069000Y-7847387D01*
X23324000Y-9340000D02*
X24331387Y-10347387D01*
X48954000Y-50927409D02*
X48954000Y-50352387D01*
X46409000Y-26255000D02*
X47724000Y-24940000D01*
X12054000Y-40827387D02*
X9469000Y-38242387D01*
X11969000Y-27492387D02*
X11969000Y-23132387D01*
X9469000Y-38242387D02*
X9469000Y-36382387D01*
X27289000Y-10347387D02*
X27289000Y-7775000D01*
X45084022Y-54797387D02*
X48954000Y-50927409D01*
X48954000Y-50352387D02*
X48954000Y-43707612D01*
X68649000Y-16615000D02*
X68649000Y-7807387D01*
X12049000Y-49082387D02*
X12049000Y-52252387D01*
X52659000Y-5302387D02*
X52694000Y-5267387D01*
X47868000Y-24825387D02*
X57376000Y-24825387D01*
X67042613Y-18221387D02*
X68649000Y-16615000D01*
X61588000Y-18221387D02*
X67042613Y-18221387D01*
X9549000Y-7807387D02*
X9549000Y-6502387D01*
X12049000Y-52252387D02*
X14594000Y-54797387D01*
X27289000Y-7775000D02*
X30124000Y-4940000D01*
X46409000Y-29397387D02*
X46409000Y-26414387D01*
X46344000Y-36017612D02*
X46344000Y-29462387D01*
X12049000Y-40832387D02*
X12044000Y-40827387D01*
X11969000Y-22985000D02*
X9509000Y-20525000D01*
X30124000Y-4940000D02*
X34541613Y-4940000D01*
X9549000Y-6502387D02*
X10784000Y-5267387D01*
X9509000Y-20525000D02*
X9509000Y-18277387D01*
X9469000Y-36382387D02*
X9469000Y-29992387D01*
X11969000Y-23132387D02*
X11969000Y-22985000D01*
X24331387Y-10347387D02*
X27289000Y-10347387D01*
X23324000Y-6340000D02*
X23324000Y-9340000D01*
X47614000Y-5302387D02*
X52659000Y-5302387D01*
X46409000Y-26414387D02*
X46409000Y-26255000D01*
X34541613Y-4940000D02*
X37449000Y-7847387D01*
X9469000Y-29992387D02*
X11969000Y-27492387D01*
X59534000Y-16167387D02*
X59534000Y-12107387D01*
X59534000Y-16167387D02*
X61588000Y-18221387D01*
X22251387Y-5267387D02*
X23324000Y-6340000D01*
X14594000Y-54797387D02*
X45084022Y-54797387D01*
X45069000Y-7847387D02*
X47614000Y-5302387D01*
X9509000Y-18277387D02*
X9509000Y-7847387D01*
%TO.N,/osc1*%
X45069000Y-12847387D02*
X45069000Y-14914387D01*
X46254000Y-16099387D02*
X46254000Y-20761387D01*
X46254000Y-23391387D02*
X43869000Y-25776387D01*
X43869000Y-25776387D02*
X43869000Y-29397387D01*
X46254000Y-20761387D02*
X46254000Y-23391387D01*
X43804000Y-36017612D02*
X43804000Y-29462387D01*
X45069000Y-14914387D02*
X46254000Y-16099387D01*
%TO.N,/osc2*%
X41374000Y-20761387D02*
X41374000Y-29352387D01*
X41374000Y-20761387D02*
X41374000Y-18331387D01*
X41264000Y-36017612D02*
X41264000Y-29462387D01*
X37449000Y-14406387D02*
X37449000Y-12847387D01*
X41374000Y-18331387D02*
X37449000Y-14406387D01*
%TO.N,/VCC5V*%
X12049000Y-18277387D02*
X12049000Y-19955000D01*
X61076000Y-20253387D02*
X66664000Y-20253387D01*
X15434000Y-23340000D02*
X24324000Y-23340000D01*
X12049000Y-7807387D02*
X20944000Y-7807387D01*
X61584000Y-20761387D02*
X61584000Y-26857387D01*
X33724000Y-13940000D02*
X33724000Y-10340000D01*
X61584000Y-26857387D02*
X50206613Y-26857387D01*
X43804000Y-43637612D02*
X46360225Y-41081387D01*
X53456000Y-13141387D02*
X60568000Y-20253387D01*
X43874000Y-50352387D02*
X43874000Y-43707612D01*
X33724000Y-10340000D02*
X48171387Y-10340000D01*
X52186000Y-7807387D02*
X53456000Y-9077387D01*
X24324000Y-23340000D02*
X33724000Y-13940000D01*
X74792000Y-34477387D02*
X68188000Y-41081387D01*
X12049000Y-18277387D02*
X12049000Y-7807387D01*
X50206613Y-26857387D02*
X48954000Y-28110000D01*
X66664000Y-20253387D02*
X74792000Y-28381387D01*
X60568000Y-20253387D02*
X61924000Y-20253387D01*
X48954000Y-28110000D02*
X48954000Y-29397387D01*
X53456000Y-9077387D02*
X53456000Y-13141387D01*
X46360225Y-41081387D02*
X68188000Y-41081387D01*
X48171387Y-10340000D02*
X50704000Y-7807387D01*
X12049000Y-19955000D02*
X15434000Y-23340000D01*
X48884000Y-36017612D02*
X48884000Y-29467387D01*
X50704000Y-7807387D02*
X52186000Y-7807387D01*
X74792000Y-28381387D02*
X74792000Y-34477387D01*
%TO.N,Net-(D1-Pad2)*%
X20944000Y-17967387D02*
X24896613Y-17967387D01*
X24896613Y-17967387D02*
X29829000Y-13035000D01*
X29829000Y-13035000D02*
X29829000Y-10347387D01*
%TO.N,Net-(D2-Pad2)*%
X71189000Y-19237387D02*
X71189000Y-7807387D01*
%TO.N,Net-(J2-Pad2)*%
X51424000Y-36017612D02*
X51424000Y-29467387D01*
%TO.N,Net-(J2-Pad3)*%
X53964000Y-36017612D02*
X53964000Y-29467387D01*
%TO.N,Net-(J2-Pad4)*%
X56504000Y-36017612D02*
X56504000Y-29467387D01*
%TO.N,Net-(J2-Pad5)*%
X59044000Y-36017612D02*
X59044000Y-29467387D01*
%TO.N,Net-(J2-Pad6)*%
X61584000Y-36017612D02*
X61584000Y-29467387D01*
%TO.N,/rst*%
X64034000Y-10977387D02*
X60864000Y-7807387D01*
X64194000Y-29397387D02*
X64194000Y-22827387D01*
X64034000Y-16167387D02*
X64034000Y-10977387D01*
X64124000Y-36017612D02*
X64124000Y-29467387D01*
%TO.N,Net-(J3-Pad1)*%
X31104000Y-36017612D02*
X31104000Y-29462387D01*
%TO.N,Net-(J3-Pad2)*%
X33644000Y-36017612D02*
X33644000Y-29462387D01*
%TO.N,Net-(J3-Pad3)*%
X36184000Y-36017612D02*
X36184000Y-29462387D01*
%TO.N,Net-(J3-Pad4)*%
X38724000Y-36017612D02*
X38724000Y-29462387D01*
%TO.N,Net-(J4-Pad1)*%
X64194000Y-50352387D02*
X64194000Y-43707612D01*
%TO.N,Net-(J4-Pad2)*%
X61654000Y-50352387D02*
X61654000Y-43707612D01*
%TO.N,Net-(J4-Pad3)*%
X59114000Y-50352387D02*
X59114000Y-43707612D01*
%TO.N,Net-(J4-Pad4)*%
X56574000Y-50352387D02*
X56574000Y-43707612D01*
%TO.N,Net-(J4-Pad5)*%
X54034000Y-50352387D02*
X54034000Y-43707612D01*
%TO.N,Net-(J4-Pad6)*%
X51494000Y-50352387D02*
X51494000Y-43707612D01*
%TO.N,Net-(J5-Pad1)*%
X46414000Y-50352387D02*
X46414000Y-43707612D01*
%TO.N,/led*%
X41334000Y-50352387D02*
X41334000Y-43707612D01*
X67379000Y-38287387D02*
X45144000Y-38287387D01*
X41264000Y-43637612D02*
X41264000Y-42167387D01*
X71189000Y-34477387D02*
X71189000Y-29397387D01*
X41264000Y-42167387D02*
X45144000Y-38287387D01*
X67379000Y-38287387D02*
X71189000Y-34477387D01*
%TO.N,Net-(J5-Pad4)*%
X38794000Y-50352387D02*
X38794000Y-43707612D01*
%TO.N,Net-(J5-Pad5)*%
X36254000Y-50352387D02*
X36254000Y-43707612D01*
%TO.N,Net-(J5-Pad6)*%
X33714000Y-50352387D02*
X33714000Y-43707612D01*
%TO.N,Net-(J5-Pad7)*%
X31174000Y-50352387D02*
X31174000Y-43707612D01*
%TD*%
M02*
